<?xml version="1.0" encoding="utf-8"?>
<!-- Generator: Adobe Illustrator 25.2.1, SVG Export Plug-In . SVG Version: 6.00 Build 0)  -->
<svg version="1.1" id="Camada_1" xmlns="http://www.w3.org/2000/svg" xmlns:xlink="http://www.w3.org/1999/xlink" x="0px" y="0px"
	 viewBox="0 0 1080 1073.43" style="enable-background:new 0 0 1080 1073.43;" xml:space="preserve">
<style type="text/css">
	.st0{fill:url(#SVGID_1_);}
	.st1{fill:#55AF31;}
	.st2{fill:url(#SVGID_2_);}
</style>
<g>
	<linearGradient id="SVGID_1_" gradientUnits="userSpaceOnUse" x1="92.0076" y1="485.4943" x2="604.2811" y2="980.639">
		<stop  offset="0.42" style="stop-color:#42AB34"/>
		<stop  offset="0.7316" style="stop-color:#5CB130;stop-opacity:0.4627"/>
		<stop  offset="1" style="stop-color:#67B32E;stop-opacity:0"/>
	</linearGradient>
	<path class="st0" d="M151.44,424.04L151.44,424.04l473.72,463.62c19.85,19.43,20.02,51.33,0.38,70.97l-47.41,47.41
		c-19.3,19.3-50.52,19.52-70.09,0.49l-356.6-346.71C86.33,594.71,86.33,489.15,151.44,424.04z"/>
	<path class="st1" d="M151.44,658.46L151.44,658.46c-65.11-65.11-65.11-170.67,0-235.78L506.09,68.04
		c20.57-20.57,53.93-20.57,74.5,0l76.8,76.8c2.12,2.12,2.12,5.57,0,7.69L151.44,658.46z"/>
	
		<linearGradient id="SVGID_2_" gradientUnits="userSpaceOnUse" x1="28.7052" y1="1438.3535" x2="540.9787" y2="1933.4982" gradientTransform="matrix(-1 0 0 -1 1016.6976 2026.2878)">
		<stop  offset="0.42" style="stop-color:#42AB34"/>
		<stop  offset="0.7316" style="stop-color:#5CB130;stop-opacity:0.4627"/>
		<stop  offset="1" style="stop-color:#67B32E;stop-opacity:0"/>
	</linearGradient>
	<path class="st2" d="M928.56,649.39L928.56,649.39L454.83,185.77c-19.85-19.43-20.02-51.33-0.38-70.97l47.41-47.41
		c19.3-19.3,50.52-19.52,70.09-0.49l356.6,346.71C993.67,478.72,993.67,584.28,928.56,649.39z"/>
	<path class="st1" d="M928.56,414.97L928.56,414.97c65.11,65.11,65.11,170.67,0,235.78l-360.03,360.03
		c-17.59,17.59-46.12,17.59-63.71,0l-82.19-82.19c-2.12-2.12-2.12-5.57,0-7.69L928.56,414.97z"/>
</g>
</svg>
