<svg id="Camada_1" data-name="Camada 1" xmlns="http://www.w3.org/2000/svg" xmlns:xlink="http://www.w3.org/1999/xlink" viewBox="0 0 1080 435"><defs><style>.cls-1{fill:url(#Gradiente_sem_nome_27);}.cls-2{fill:#0d0d0d;}.cls-3{fill:url(#Gradiente_sem_nome_27-2);}</style><linearGradient id="Gradiente_sem_nome_27" x1="53.94" y1="196.35" x2="253.73" y2="389.46" gradientUnits="userSpaceOnUse"><stop offset="0.39" stop-color="#0d0d0d"/><stop offset="1" stop-color="#0d0d0d" stop-opacity="0"/></linearGradient><linearGradient id="Gradiente_sem_nome_27-2" x1="-7352.69" y1="6161.99" x2="-7152.9" y2="6355.1" gradientTransform="translate(-6949.3 6398.29) rotate(180)" xlink:href="#Gradiente_sem_nome_27"/></defs><title>Prancheta 7</title><path class="cls-1" d="M77.12,172.38h0L261.88,353.2a19.46,19.46,0,0,1,.15,27.67l-18.49,18.49a19.47,19.47,0,0,1-27.34.2L77.12,264.34A65,65,0,0,1,77.12,172.38Z"/><path class="cls-2" d="M77.12,263.81l-.39-.39a64.47,64.47,0,0,1,0-91.18L216.32,32.65a19.31,19.31,0,0,1,27.29,0l18.68,18.69a19.29,19.29,0,0,1,0,27.29Z"/><path class="cls-3" d="M380.2,260.27h0L195.45,79.45a19.46,19.46,0,0,1-.15-27.68l18.49-18.49a19.48,19.48,0,0,1,27.34-.19L380.2,168.31A65,65,0,0,1,380.2,260.27Z"/><path class="cls-2" d="M380.2,168.84l.4.39a64.49,64.49,0,0,1,0,91.18L241,400a19.3,19.3,0,0,1-27.3,0L195,381.31a19.3,19.3,0,0,1,0-27.3Z"/><path class="cls-2" d="M569.12,86.38v94.49H551.86l-41.1-59.47h-.69v59.47h-20V86.38h17.53L548.4,145.8h.83V86.38Z"/><path class="cls-2" d="M617.51,182.25q-10.93,0-18.8-4.45a30.14,30.14,0,0,1-12.11-12.64q-4.25-8.19-4.24-19.4a41.39,41.39,0,0,1,4.24-19.19,31.36,31.36,0,0,1,12-12.88,34.84,34.84,0,0,1,18.16-4.61,37.59,37.59,0,0,1,13.08,2.24A29.54,29.54,0,0,1,640.42,118a30.55,30.55,0,0,1,7.08,11.23,45,45,0,0,1,2.54,15.8v5.4H590.2V138.28h41.34a15.08,15.08,0,0,0-1.85-7.52,13.46,13.46,0,0,0-5.1-5.14,14.8,14.8,0,0,0-7.54-1.87,15.21,15.21,0,0,0-7.91,2,14.83,14.83,0,0,0-5.38,5.49,15.68,15.68,0,0,0-2,7.64v11.58a19.69,19.69,0,0,0,2,9.09,14,14,0,0,0,5.56,5.9,16.73,16.73,0,0,0,8.54,2.08,18.68,18.68,0,0,0,6-.92,12.46,12.46,0,0,0,4.66-2.77,12.14,12.14,0,0,0,3-4.52l18.17,1.2A24.68,24.68,0,0,1,644,172a28.28,28.28,0,0,1-11,7.57A41.22,41.22,0,0,1,617.51,182.25Z"/><path class="cls-2" d="M676.29,180.87,657,110h19.89l11,47.61h.64L700,110h19.51l11.63,47.34h.6L742.49,110h19.84l-19.24,70.87H722.28L710.1,136.3h-.87l-12.18,44.57Z"/><path class="cls-2" d="M835.77,116.92a20.92,20.92,0,0,0-2.72-6,17.47,17.47,0,0,0-4.27-4.43,19.16,19.16,0,0,0-5.72-2.79,24.29,24.29,0,0,0-7.08-1,22.59,22.59,0,0,0-12.71,3.6,23.58,23.58,0,0,0-8.51,10.45q-3,6.85-3,16.72a42.12,42.12,0,0,0,3,16.79,23.34,23.34,0,0,0,8.49,10.55,23,23,0,0,0,13,3.62,25.67,25.67,0,0,0,11.6-2.42,17.27,17.27,0,0,0,7.38-6.86,20.52,20.52,0,0,0,2.56-10.47l4.06.6H817.41v-15H857v11.9q0,12.47-5.26,21.39a35.74,35.74,0,0,1-14.49,13.75,45,45,0,0,1-21.13,4.82q-13.29,0-23.34-5.89a40.24,40.24,0,0,1-15.66-16.74q-5.61-10.86-5.61-25.81a58.7,58.7,0,0,1,3.35-20.51,43.64,43.64,0,0,1,9.38-15.29,40.49,40.49,0,0,1,14.08-9.55,45.43,45.43,0,0,1,17.39-3.28,46.7,46.7,0,0,1,15,2.33A40.61,40.61,0,0,1,842.9,94a35.88,35.88,0,0,1,8.79,10.08,34.63,34.63,0,0,1,4.38,12.85Z"/><path class="cls-2" d="M903.87,182.25q-10.93,0-18.8-4.45A30.08,30.08,0,0,1,873,165.16q-4.25-8.19-4.25-19.4A41.4,41.4,0,0,1,873,126.57a31.36,31.36,0,0,1,12-12.88,34.78,34.78,0,0,1,18.15-4.61,37.51,37.51,0,0,1,13.08,2.24A29.54,29.54,0,0,1,926.77,118a30.55,30.55,0,0,1,7.08,11.23,45,45,0,0,1,2.54,15.8v5.4H876.55V138.28h41.34a15.08,15.08,0,0,0-1.85-7.52,13.44,13.44,0,0,0-5.09-5.14,14.86,14.86,0,0,0-7.55-1.87,15.21,15.21,0,0,0-7.91,2,14.73,14.73,0,0,0-5.37,5.49,15.69,15.69,0,0,0-2,7.64v11.58a19.82,19.82,0,0,0,2,9.09,14,14,0,0,0,5.56,5.9,16.76,16.76,0,0,0,8.54,2.08,18.78,18.78,0,0,0,6-.92,12.5,12.5,0,0,0,4.65-2.77,12,12,0,0,0,3-4.52l18.17,1.2A24.68,24.68,0,0,1,930.32,172a28.28,28.28,0,0,1-11,7.57A41.2,41.2,0,0,1,903.87,182.25Z"/><path class="cls-2" d="M968.87,139.9v41H949.22V110H968v12.51h.83a19.85,19.85,0,0,1,7.89-9.81,24,24,0,0,1,13.42-3.62,25,25,0,0,1,12.87,3.23,22,22,0,0,1,8.54,9.2,31,31,0,0,1,3,14.24v45.12H994.89V139.25c0-4.33-1.08-7.73-3.32-10.17s-5.34-3.67-9.28-3.67a14,14,0,0,0-7,1.71,11.74,11.74,0,0,0-4.7,5A17.22,17.22,0,0,0,968.87,139.9Z"/><path class="cls-2" d="M492.65,312.36V217.88h11.44v84.33H548v10.15Z"/><path class="cls-2" d="M594,313.84a33.09,33.09,0,0,1-17.65-4.55,30,30,0,0,1-11.39-12.73,43.08,43.08,0,0,1-4-19.08,43.94,43.94,0,0,1,4-19.21,31.28,31.28,0,0,1,11.16-13,30,30,0,0,1,16.77-4.69,33.65,33.65,0,0,1,10.94,1.85,27.29,27.29,0,0,1,9.82,6,28.93,28.93,0,0,1,7.06,10.92A46.44,46.44,0,0,1,623.3,276v4.61H568.68v-9.41h43.55a23.38,23.38,0,0,0-2.38-10.71,18.29,18.29,0,0,0-6.73-7.42,19,19,0,0,0-10.27-2.73,19.49,19.49,0,0,0-11.23,3.21,21.27,21.27,0,0,0-7.27,8.33,24.39,24.39,0,0,0-2.54,11v6.27a30,30,0,0,0,2.8,13.59,19.61,19.61,0,0,0,7.77,8.44A22.72,22.72,0,0,0,594,304.06a23.2,23.2,0,0,0,7.77-1.23,16.09,16.09,0,0,0,6-3.69,16.5,16.5,0,0,0,3.92-6.16l10.52,3a23.11,23.11,0,0,1-5.58,9.38,26.6,26.6,0,0,1-9.69,6.28A35.59,35.59,0,0,1,594,313.84Z"/><path class="cls-2" d="M660.76,314a28.51,28.51,0,0,1-12.22-2.56,20.11,20.11,0,0,1-11.95-19.21,18.33,18.33,0,0,1,2.4-9.9,16.92,16.92,0,0,1,6.41-6,34.56,34.56,0,0,1,8.88-3.25q4.86-1.08,9.8-1.73,6.46-.83,10.5-1.27a15.9,15.9,0,0,0,5.9-1.5,3.86,3.86,0,0,0,1.87-3.69v-.37q0-6.82-3.71-10.61t-11.24-3.78q-7.78,0-12.22,3.41a20.28,20.28,0,0,0-6.23,7.29l-10.33-3.69A24.93,24.93,0,0,1,646,247.1,28,28,0,0,1,656.17,242,42.52,42.52,0,0,1,667,240.57a44.58,44.58,0,0,1,7.86.81,25.83,25.83,0,0,1,8.63,3.3,19.31,19.31,0,0,1,6.94,7.52q2.78,5,2.77,13.47v46.69H682.35v-9.6h-.55a19.18,19.18,0,0,1-3.69,4.94,21.29,21.29,0,0,1-6.88,4.47A26.47,26.47,0,0,1,660.76,314Zm1.66-9.78a21.74,21.74,0,0,0,10.91-2.54,17.42,17.42,0,0,0,6.74-6.55,16.83,16.83,0,0,0,2.28-8.44v-10a6.25,6.25,0,0,1-3,1.5A46.4,46.4,0,0,1,674,279.4q-3,.48-5.86.83l-4.59.57a42.62,42.62,0,0,0-7.91,1.78,13.85,13.85,0,0,0-5.91,3.64,9.34,9.34,0,0,0-2.24,6.58,9.7,9.7,0,0,0,4.23,8.56A18.59,18.59,0,0,0,662.42,304.24Z"/><path class="cls-2" d="M739.93,313.84a27.62,27.62,0,0,1-15.64-4.5,30,30,0,0,1-10.61-12.74q-3.84-8.24-3.83-19.49a45.32,45.32,0,0,1,3.83-19.37,29.71,29.71,0,0,1,10.65-12.69,28.15,28.15,0,0,1,15.78-4.48q6.92,0,11,2.29a19.4,19.4,0,0,1,6.18,5.17q2.14,2.88,3.34,4.72h.93V217.88h10.89v94.48H761.89V301.47h-1.3c-.8,1.29-1.93,2.92-3.41,4.87a19.76,19.76,0,0,1-6.32,5.21Q746.75,313.83,739.93,313.84Zm1.47-9.78a17.8,17.8,0,0,0,11.08-3.44,21.27,21.27,0,0,0,6.87-9.55,39.21,39.21,0,0,0,2.35-14.14A38.66,38.66,0,0,0,759.4,263a20.44,20.44,0,0,0-6.83-9.32,20.41,20.41,0,0,0-22.68.18,21.24,21.24,0,0,0-6.87,9.55,37.93,37.93,0,0,0-2.28,13.5,38.57,38.57,0,0,0,2.32,13.72,22,22,0,0,0,6.93,9.78A17.8,17.8,0,0,0,741.4,304.06Z"/><path class="cls-2" d="M823.52,313.84a33.09,33.09,0,0,1-17.65-4.55,30,30,0,0,1-11.39-12.73,43.08,43.08,0,0,1-4-19.08,43.94,43.94,0,0,1,4-19.21,31.28,31.28,0,0,1,11.16-13,30,30,0,0,1,16.77-4.69,33.65,33.65,0,0,1,10.94,1.85,27.2,27.2,0,0,1,9.82,6,28.81,28.81,0,0,1,7.06,10.92q2.64,6.78,2.63,16.7v4.61H798.24v-9.41h43.55a23.38,23.38,0,0,0-2.38-10.71,18.29,18.29,0,0,0-6.73-7.42,19,19,0,0,0-10.27-2.73,19.51,19.51,0,0,0-11.23,3.21,21.35,21.35,0,0,0-7.27,8.33,24.39,24.39,0,0,0-2.53,11v6.27a30.09,30.09,0,0,0,2.79,13.59,19.61,19.61,0,0,0,7.77,8.44,22.72,22.72,0,0,0,11.58,2.89,23.2,23.2,0,0,0,7.77-1.23,16,16,0,0,0,6-3.69,16.64,16.64,0,0,0,3.93-6.16l10.51,3a23,23,0,0,1-5.58,9.38,26.6,26.6,0,0,1-9.69,6.28A35.59,35.59,0,0,1,823.52,313.84Z"/><path class="cls-2" d="M869.47,312.36V241.5H880v10.7h.74a17,17,0,0,1,7-8.53,20.59,20.59,0,0,1,11.44-3.28c.8,0,1.8,0,3,.05s2.11.07,2.72.13v11.08c-.37-.1-1.21-.24-2.51-.44a27.39,27.39,0,0,0-4.13-.3,19.34,19.34,0,0,0-9.21,2.14,16.33,16.33,0,0,0-6.36,5.91,15.87,15.87,0,0,0-2.33,8.56v44.84Z"/><path class="cls-2" d="M968,257.37l-9.78,2.77a19.15,19.15,0,0,0-2.7-4.78,13.48,13.48,0,0,0-4.82-3.85,17.37,17.37,0,0,0-7.8-1.52,18.67,18.67,0,0,0-10.82,3q-4.3,3-4.31,7.54a7.79,7.79,0,0,0,3,6.42q3,2.35,9.23,3.92l10.52,2.58q9.51,2.31,14.16,7a16.56,16.56,0,0,1,4.66,12.15,18.09,18.09,0,0,1-3.48,10.89,23.45,23.45,0,0,1-9.71,7.57,35.47,35.47,0,0,1-14.49,2.77q-10.85,0-17.94-4.71a20.86,20.86,0,0,1-9-13.75L925,292.8a14.38,14.38,0,0,0,5.61,8.58q4.13,2.87,10.82,2.86,7.6,0,12.11-3.25t4.5-7.82a8.35,8.35,0,0,0-2.59-6.21c-1.72-1.67-4.37-2.93-7.93-3.76l-11.81-2.77q-9.74-2.3-14.28-7.17a17.17,17.17,0,0,1-4.55-12.2,17.38,17.38,0,0,1,3.4-10.61,22.68,22.68,0,0,1,9.27-7.25,32.42,32.42,0,0,1,13.35-2.63q10.53,0,16.54,4.62A24.83,24.83,0,0,1,968,257.37Z"/><path class="cls-2" d="M993.66,313.1a8.34,8.34,0,1,1,7.17-4.15,8.67,8.67,0,0,1-3,3A7.9,7.9,0,0,1,993.66,313.1Z"/></svg>