<svg id="Camada_1" data-name="Camada 1" xmlns="http://www.w3.org/2000/svg" xmlns:xlink="http://www.w3.org/1999/xlink" viewBox="0 0 1080 435"><defs><style>.cls-1{fill:url(#Gradiente_sem_nome_12);}.cls-2{fill:#e5e5e5;}.cls-3{fill:url(#Gradiente_sem_nome_6);}</style><linearGradient id="Gradiente_sem_nome_12" x1="53.94" y1="193" x2="253.73" y2="386.11" gradientUnits="userSpaceOnUse"><stop offset="0.42" stop-color="#e5e5e5"/><stop offset="0.53" stop-color="#e5e5e5" stop-opacity="0.75"/><stop offset="0.65" stop-color="#e5e5e5" stop-opacity="0.48"/><stop offset="0.76" stop-color="#e5e5e5" stop-opacity="0.27"/><stop offset="0.86" stop-color="#e5e5e5" stop-opacity="0.12"/><stop offset="0.95" stop-color="#e5e5e5" stop-opacity="0.03"/><stop offset="1" stop-color="#e5e5e5" stop-opacity="0"/></linearGradient><linearGradient id="Gradiente_sem_nome_6" x1="-9592.69" y1="6165.33" x2="-9392.9" y2="6358.45" gradientTransform="translate(-9189.3 6398.29) rotate(180)" xlink:href="#Gradiente_sem_nome_12"/></defs><title>Prancheta 8</title><path class="cls-1" d="M77.12,169h0L261.88,349.85a19.47,19.47,0,0,1,.15,27.68L243.54,396a19.47,19.47,0,0,1-27.34.19L77.12,261A65,65,0,0,1,77.12,169Z"/><path class="cls-2" d="M77.12,260.46l-.39-.39a64.47,64.47,0,0,1,0-91.18L216.32,29.31a19.29,19.29,0,0,1,27.29,0L262.29,48a19.3,19.3,0,0,1,0,27.3Z"/><path class="cls-3" d="M380.2,256.92h0L195.45,76.11a19.46,19.46,0,0,1-.15-27.68l18.49-18.49a19.46,19.46,0,0,1,27.33-.2L380.2,165A65,65,0,0,1,380.2,256.92Z"/><path class="cls-2" d="M380.2,165.49l.4.4a64.48,64.48,0,0,1,0,91.17L241,396.65a19.32,19.32,0,0,1-27.3,0L195,378a19.29,19.29,0,0,1,0-27.29Z"/><path class="cls-2" d="M569.12,83v94.48H551.86l-41.1-59.47h-.69v59.47h-20V83h17.53l40.78,59.42h.83V83Z"/><path class="cls-2" d="M617.51,178.9q-10.93,0-18.8-4.45a30.14,30.14,0,0,1-12.11-12.64q-4.25-8.19-4.24-19.4a41.42,41.42,0,0,1,4.24-19.19,31.27,31.27,0,0,1,12-12.87,34.75,34.75,0,0,1,18.16-4.62A37.59,37.59,0,0,1,629.81,108a29.54,29.54,0,0,1,10.61,6.71,30.59,30.59,0,0,1,7.08,11.24,44.87,44.87,0,0,1,2.54,15.8v5.4H590.2V134.94h41.34a15,15,0,0,0-1.85-7.52,13.42,13.42,0,0,0-5.1-5.15,14.9,14.9,0,0,0-7.54-1.86,15.11,15.11,0,0,0-7.91,2,14.83,14.83,0,0,0-5.38,5.49,15.65,15.65,0,0,0-2,7.63v11.58a19.66,19.66,0,0,0,2,9.09,14.11,14.11,0,0,0,5.56,5.91,16.83,16.83,0,0,0,8.54,2.07,18.4,18.4,0,0,0,6-.92,12.33,12.33,0,0,0,4.66-2.77,12.06,12.06,0,0,0,3-4.52l18.17,1.2A24.72,24.72,0,0,1,644,168.64a28.26,28.26,0,0,1-11,7.56A41.22,41.22,0,0,1,617.51,178.9Z"/><path class="cls-2" d="M676.29,177.52,657,106.66h19.89l11,47.61h.64L700,106.66h19.51L731.1,154h.6l10.79-47.33h19.84l-19.24,70.86H722.28L710.1,133h-.87l-12.18,44.57Z"/><path class="cls-2" d="M835.77,113.58a20.86,20.86,0,0,0-2.72-6,17.63,17.63,0,0,0-4.27-4.43,19.16,19.16,0,0,0-5.72-2.79,24.63,24.63,0,0,0-7.08-1,22.59,22.59,0,0,0-12.71,3.6,23.63,23.63,0,0,0-8.51,10.45q-3,6.86-3,16.73a42.12,42.12,0,0,0,3,16.79,23.31,23.31,0,0,0,8.49,10.54,23,23,0,0,0,13,3.62,25.67,25.67,0,0,0,11.6-2.42,17.31,17.31,0,0,0,7.38-6.85,20.52,20.52,0,0,0,2.56-10.47l4.06.6H817.41V127H857v11.9q0,12.45-5.26,21.38A35.67,35.67,0,0,1,837.2,174a45,45,0,0,1-21.13,4.82q-13.29,0-23.34-5.88a40.2,40.2,0,0,1-15.66-16.75q-5.61-10.86-5.61-25.81a58.74,58.74,0,0,1,3.35-20.51,43.64,43.64,0,0,1,9.38-15.29A40.62,40.62,0,0,1,798.27,85a45.62,45.62,0,0,1,17.39-3.27,46.7,46.7,0,0,1,15,2.32,40.63,40.63,0,0,1,12.29,6.58,35.88,35.88,0,0,1,8.79,10.08,34.51,34.51,0,0,1,4.38,12.85Z"/><path class="cls-2" d="M903.87,178.9q-10.93,0-18.8-4.45A30.08,30.08,0,0,1,873,161.81q-4.25-8.19-4.25-19.4A41.42,41.42,0,0,1,873,123.22a31.27,31.27,0,0,1,12-12.87,34.69,34.69,0,0,1,18.15-4.62A37.51,37.51,0,0,1,916.16,108a29.54,29.54,0,0,1,10.61,6.71,30.59,30.59,0,0,1,7.08,11.24,44.87,44.87,0,0,1,2.54,15.8v5.4H876.55V134.94h41.34a15,15,0,0,0-1.85-7.52,13.4,13.4,0,0,0-5.09-5.15,15,15,0,0,0-7.55-1.86,15.11,15.11,0,0,0-7.91,2,14.73,14.73,0,0,0-5.37,5.49,15.65,15.65,0,0,0-2,7.63v11.58a19.79,19.79,0,0,0,2,9.09,14.11,14.11,0,0,0,5.56,5.91,16.85,16.85,0,0,0,8.54,2.07,18.51,18.51,0,0,0,6-.92,12.37,12.37,0,0,0,4.65-2.77,11.94,11.94,0,0,0,3-4.52l18.17,1.2a24.72,24.72,0,0,1-5.65,11.42,28.26,28.26,0,0,1-11,7.56A41.2,41.2,0,0,1,903.87,178.9Z"/><path class="cls-2" d="M968.87,136.55v41H949.22V106.66H968v12.5h.83a19.83,19.83,0,0,1,7.89-9.8,23.93,23.93,0,0,1,13.42-3.63A25,25,0,0,1,1003,109a22.07,22.07,0,0,1,8.54,9.21,31,31,0,0,1,3,14.23v45.12H994.89V135.91q0-6.51-3.32-10.18t-9.28-3.66a14.08,14.08,0,0,0-7,1.7,11.74,11.74,0,0,0-4.7,5A17.26,17.26,0,0,0,968.87,136.55Z"/><path class="cls-2" d="M492.65,309V214.53h11.44v84.33H548V309Z"/><path class="cls-2" d="M594,310.49A33.09,33.09,0,0,1,576.31,306a29.94,29.94,0,0,1-11.39-12.74,42.9,42.9,0,0,1-4-19.07,43.84,43.84,0,0,1,4-19.22,31.28,31.28,0,0,1,11.16-13,30,30,0,0,1,16.77-4.68,33.58,33.58,0,0,1,10.93,1.84,27.27,27.27,0,0,1,9.83,6A28.89,28.89,0,0,1,620.67,256a46.48,46.48,0,0,1,2.63,16.7v4.61H568.67v-9.41h43.56a23.46,23.46,0,0,0-2.38-10.7,18.27,18.27,0,0,0-6.74-7.43A19,19,0,0,0,592.85,247a19.49,19.49,0,0,0-11.23,3.21,21.24,21.24,0,0,0-7.27,8.32,24.46,24.46,0,0,0-2.54,11v6.28a30,30,0,0,0,2.79,13.58,19.71,19.71,0,0,0,7.78,8.45A22.72,22.72,0,0,0,594,300.71a23.46,23.46,0,0,0,7.77-1.22,16.35,16.35,0,0,0,6-3.69,16.58,16.58,0,0,0,3.92-6.16l10.52,2.95a23.19,23.19,0,0,1-5.58,9.39,26.88,26.88,0,0,1-9.69,6.27A35.63,35.63,0,0,1,594,310.49Z"/><path class="cls-2" d="M660.76,310.67a28.55,28.55,0,0,1-12.23-2.56,20.08,20.08,0,0,1-11.95-19.21A18.33,18.33,0,0,1,639,279a17.07,17.07,0,0,1,6.42-6,33.83,33.83,0,0,1,8.88-3.25c3.24-.73,6.51-1.3,9.8-1.73,4.31-.56,7.8-1,10.5-1.27a15.9,15.9,0,0,0,5.9-1.5,3.88,3.88,0,0,0,1.87-3.69v-.37q0-6.83-3.71-10.61t-11.24-3.79q-7.8,0-12.22,3.42a20.1,20.1,0,0,0-6.23,7.29l-10.34-3.69A24.9,24.9,0,0,1,646,243.76a27.81,27.81,0,0,1,10.15-5.08A42.37,42.37,0,0,1,667,237.23a44.59,44.59,0,0,1,7.87.81,25.59,25.59,0,0,1,8.63,3.29,19.45,19.45,0,0,1,6.94,7.52q2.76,5,2.77,13.48V309H682.35v-9.59h-.55a19.15,19.15,0,0,1-3.69,4.93,21.31,21.31,0,0,1-6.88,4.48A26.48,26.48,0,0,1,660.76,310.67Zm1.66-9.78a21.74,21.74,0,0,0,10.91-2.53,17.56,17.56,0,0,0,6.74-6.55,16.86,16.86,0,0,0,2.28-8.45v-10a6.43,6.43,0,0,1-3,1.5,47,47,0,0,1-5.35,1.15q-3,.48-5.86.83c-1.89.23-3.42.42-4.59.58a42.63,42.63,0,0,0-7.91,1.77,13.77,13.77,0,0,0-5.91,3.65,9.3,9.3,0,0,0-2.24,6.57,9.69,9.69,0,0,0,4.22,8.56A18.65,18.65,0,0,0,662.42,300.89Z"/><path class="cls-2" d="M739.92,310.49a27.61,27.61,0,0,1-15.63-4.5,30,30,0,0,1-10.62-12.73q-3.82-8.24-3.82-19.49a45.52,45.52,0,0,1,3.82-19.38,29.92,29.92,0,0,1,10.66-12.69,28.15,28.15,0,0,1,15.78-4.47q6.92,0,11,2.28a19.66,19.66,0,0,1,6.18,5.17q2.14,2.88,3.34,4.73h.93V214.53H772.4V309H761.88V298.13h-1.29c-.8,1.29-1.93,2.91-3.41,4.86a19.89,19.89,0,0,1-6.32,5.22Q746.75,310.49,739.92,310.49Zm1.48-9.78a17.75,17.75,0,0,0,11.07-3.44,21.16,21.16,0,0,0,6.88-9.55,39.17,39.17,0,0,0,2.35-14.14,38.47,38.47,0,0,0-2.31-13.91,20.35,20.35,0,0,0-6.82-9.32,20.44,20.44,0,0,0-22.68.19,21.13,21.13,0,0,0-6.87,9.55,37.61,37.61,0,0,0-2.29,13.49,38.62,38.62,0,0,0,2.33,13.73,22.19,22.19,0,0,0,6.92,9.78A17.9,17.9,0,0,0,741.4,300.71Z"/><path class="cls-2" d="M823.52,310.49A33.09,33.09,0,0,1,805.87,306a30,30,0,0,1-11.39-12.74,43,43,0,0,1-4-19.07,44,44,0,0,1,4-19.22,31.28,31.28,0,0,1,11.16-13,30,30,0,0,1,16.77-4.68,33.53,33.53,0,0,1,10.93,1.84,27.27,27.27,0,0,1,9.83,6A28.89,28.89,0,0,1,850.23,256a46.48,46.48,0,0,1,2.63,16.7v4.61H798.24v-9.41h43.55a23.33,23.33,0,0,0-2.38-10.7,18.32,18.32,0,0,0-6.73-7.43A19,19,0,0,0,822.41,247a19.49,19.49,0,0,0-11.23,3.21,21.24,21.24,0,0,0-7.27,8.32,24.46,24.46,0,0,0-2.54,11v6.28a29.88,29.88,0,0,0,2.8,13.58,19.69,19.69,0,0,0,7.77,8.45,22.72,22.72,0,0,0,11.58,2.88,23.46,23.46,0,0,0,7.77-1.22,16.35,16.35,0,0,0,6-3.69,16.58,16.58,0,0,0,3.92-6.16l10.52,2.95a23.08,23.08,0,0,1-5.58,9.39,26.71,26.71,0,0,1-9.69,6.27A35.59,35.59,0,0,1,823.52,310.49Z"/><path class="cls-2" d="M869.47,309V238.15H880v10.7h.73a17,17,0,0,1,7-8.53A20.65,20.65,0,0,1,899.18,237c.8,0,1.8,0,3,.05s2.1.08,2.72.14V248.3c-.37-.09-1.21-.24-2.52-.44a27.16,27.16,0,0,0-4.12-.3,19.32,19.32,0,0,0-9.21,2.15,16.37,16.37,0,0,0-6.36,5.9,15.87,15.87,0,0,0-2.33,8.56V309Z"/><path class="cls-2" d="M968,254l-9.78,2.77a19.1,19.1,0,0,0-2.7-4.77,13.59,13.59,0,0,0-4.82-3.86,17.5,17.5,0,0,0-7.8-1.52,18.6,18.6,0,0,0-10.82,3q-4.3,3-4.31,7.54a7.75,7.75,0,0,0,3,6.41q3,2.35,9.23,3.92l10.52,2.59q9.49,2.3,14.16,7a16.58,16.58,0,0,1,4.66,12.16,18.09,18.09,0,0,1-3.48,10.89,23.44,23.44,0,0,1-9.71,7.56,35.34,35.34,0,0,1-14.49,2.77q-10.85,0-18-4.71a20.86,20.86,0,0,1-9-13.74L925,289.45a14.28,14.28,0,0,0,5.61,8.58q4.13,2.87,10.82,2.86,7.6,0,12.11-3.25t4.49-7.82a8.3,8.3,0,0,0-2.58-6.2c-1.72-1.68-4.37-2.93-7.93-3.76l-11.82-2.77q-9.74-2.31-14.27-7.17a17.22,17.22,0,0,1-4.55-12.21,17.45,17.45,0,0,1,3.39-10.61,22.7,22.7,0,0,1,9.28-7.24,32.42,32.42,0,0,1,13.35-2.63q10.51,0,16.54,4.61A25,25,0,0,1,968,254Z"/><path class="cls-2" d="M993.66,309.75a8.34,8.34,0,1,1,7.17-4.15,8.59,8.59,0,0,1-3,3A7.81,7.81,0,0,1,993.66,309.75Z"/></svg>